<mxfile host="65bd71144e">
    <diagram id="EPHvODVBjhY_2xAVQ568" name="Page-1">
        <mxGraphModel dx="1187" dy="832" grid="1" gridSize="10" guides="1" tooltips="1" connect="1" arrows="1" fold="1" page="1" pageScale="1" pageWidth="1920" pageHeight="1200" math="0" shadow="0">
            <root>
                <mxCell id="0"/>
                <mxCell id="1" parent="0"/>
                <mxCell id="2" value="&lt;font style=&quot;font-size: 48px&quot;&gt;start&lt;br&gt;input int n as nth number&lt;br&gt;set variable int a to 0&lt;br&gt;set variable int b to 1&lt;br&gt;print &quot;0&quot;&lt;br&gt;print &quot;1&quot;&lt;br&gt;add a + b to c&lt;br&gt;print c&lt;br&gt;a = b&lt;br&gt;b = c&lt;br&gt;&lt;br&gt;&lt;/font&gt;" style="text;html=1;strokeColor=none;fillColor=none;align=left;verticalAlign=middle;whiteSpace=wrap;rounded=0;" vertex="1" parent="1">
                    <mxGeometry x="50" y="30" width="830" height="820" as="geometry"/>
                </mxCell>
            </root>
        </mxGraphModel>
    </diagram>
</mxfile>